<?xml version="1.0" encoding="UTF-8"?>
<svg id="Layer_2" data-name="Layer 2" xmlns="http://www.w3.org/2000/svg" viewBox="0 0 497.08 82.63">
  <defs>
    <style>
      .cls-1 {
        fill: #33232b;
      }
    </style>
  </defs>
  <g id="Layer_1-2" data-name="Layer 1">
    <g>
      <g>
        <path class="cls-1" d="M0,67.83h1.87c3.74,0,5.44-1.79,5.44-5.19V22.1h15.3v42.25c0,12.41-6.04,18.28-20.15,18.28H0v-14.79ZM5.7,9.18C5.7,3.91,9.69,0,14.96,0s9.27,3.91,9.27,9.18-4,9.18-9.27,9.18-9.27-3.91-9.27-9.18Z"/>
        <path class="cls-1" d="M26.95,43.78c0-12.92,10.12-22.7,23.55-22.7s23.55,9.69,23.55,23.04c0,1.19-.08,2.89-.34,4h-30.35c1.19,3.57,3.91,5.7,7.57,5.7,2.98,0,5.44-1.27,6.55-2.55h16.07c-3.06,9.01-11.99,15.22-23.04,15.22-13.43,0-23.55-9.78-23.55-22.7ZM43.35,39.36h14.45c-1.1-3.49-3.74-5.61-7.31-5.61s-6.04,2.12-7.14,5.61Z"/>
        <path class="cls-1" d="M75.82,53.21c2.38-.85,4.59-1.87,6.72-3.06-3.91-6.21-6.04-14.11-6.04-22.95,0-15.13,7.65-23.97,19.3-23.97s18.36,7.82,18.36,21.34c0,9.01-3.32,17.77-9.01,25.08,1.79.68,3.74,1.02,5.78,1.02h2.98v14.79h-3.83c-6.55,0-12.5-1.79-17.43-4.93-3.32,2.04-7.06,3.74-10.97,4.93l-5.87-12.24ZM94.52,38.51c2.55-4.17,3.91-8.93,3.91-13.86,0-4.42-1.1-6.63-2.97-6.63s-3.23,2.46-3.23,8.16c0,4.51.85,8.76,2.29,12.33Z"/>
        <path class="cls-1" d="M116.45,53.21c2.38-.85,4.59-1.87,6.72-3.06-3.91-6.21-6.04-14.11-6.04-22.95,0-15.13,7.65-23.97,19.3-23.97s18.36,7.82,18.36,21.34c0,9.01-3.32,17.77-9.01,25.08,1.79.68,3.74,1.02,5.78,1.02h2.98v14.79h-3.83c-6.55,0-12.5-1.79-17.43-4.93-3.32,2.04-7.06,3.74-10.97,4.93l-5.87-12.24ZM135.15,38.51c2.55-4.17,3.91-8.93,3.91-13.86,0-4.42-1.1-6.63-2.97-6.63s-3.23,2.46-3.23,8.16c0,4.51.85,8.76,2.29,12.33Z"/>
        <path class="cls-1" d="M158.78,48.2v-26.1h15.3v21.42c0,3.49,2.13,5.78,5.36,5.78,3.57,0,6.04-2.38,6.04-5.95v-21.25h15.3v40.38c0,12.16-8.42,20.15-20.91,20.15-11.05,0-18.79-6.21-21.08-16.15h15.73c1.1,1.96,3.14,3.23,5.53,3.23,3.31,0,5.44-2.46,5.44-6.46v-3.4c-3.06,2.8-6.8,4.25-11.22,4.25-9.27,0-15.47-6.29-15.47-15.9Z"/>
        <path class="cls-1" d="M207.57,4.25h15.3v20.57c2.98-2.38,6.63-3.74,10.88-3.74,11.73,0,20.49,9.78,20.49,22.7s-8.76,22.7-20.49,22.7c-4.25,0-7.91-1.36-10.88-3.74v2.72h-15.3V4.25ZM238.51,43.78c0-4.51-3.32-7.91-7.82-7.91s-7.82,3.4-7.82,7.91,3.32,7.91,7.82,7.91,7.82-3.4,7.82-7.91Z"/>
        <path class="cls-1" d="M256.36,43.78c0-12.92,10.12-22.7,23.55-22.7s23.55,9.69,23.55,23.04c0,1.19-.08,2.89-.34,4h-30.35c1.19,3.57,3.91,5.7,7.57,5.7,2.98,0,5.44-1.27,6.55-2.55h16.07c-3.06,9.01-11.99,15.22-23.04,15.22-13.43,0-23.55-9.78-23.55-22.7ZM272.76,39.36h14.45c-1.11-3.49-3.74-5.61-7.31-5.61s-6.04,2.12-7.14,5.61Z"/>
        <path class="cls-1" d="M305.48,43.78c0-12.92,8.76-22.7,20.49-22.7,4.25,0,7.91,1.36,10.88,3.74v-2.72h15.3v25.59c0,1.96,1.02,2.98,2.97,2.98h.94v14.79h-4.17c-5.95,0-10.2-1.7-12.58-5.1-3.23,3.83-7.82,6.12-13.35,6.12-11.73,0-20.49-9.78-20.49-22.7ZM336.85,43.78c0-4.51-3.31-7.91-7.82-7.91s-7.82,3.4-7.82,7.91,3.32,7.91,7.82,7.91,7.82-3.4,7.82-7.91Z"/>
        <path class="cls-1" d="M359.8,22.1h15.3v3.23c3.23-2.81,7.14-4.25,11.73-4.25,9.61,0,15.98,6.29,15.98,15.9v10.71c0,1.96,1.02,2.98,2.98,2.98h.93v14.79h-4.17c-10.03,0-15.05-4.76-15.05-14.37v-8.93c0-3.83-2.3-6.29-5.87-6.29-3.91,0-6.54,2.55-6.54,6.46v23.12h-15.3V22.1Z"/>
        <path class="cls-1" d="M408.5,49.22l15.56-12.33h-15.22v-14.79h37.57v14.79l-17.34,14.37c1.36.25,2.81.42,4.25.42,5.53,0,10.97-2.04,14.54-5.53v16.07c-4,2.72-9.95,4.25-15.81,4.25s-11.48-1.62-15.73-4.67l-5.27,4.42h-2.55v-17Z"/>
      </g>
      <path class="cls-1" d="M480.66,53.96c-7.65-4.98-12.63-10.95-12.63-16.94,0-5.51,3.85-9.22,8.41-9.22,2.88,0,4.89,1.57,6.13,3.83,1.22-2.26,3.23-3.83,6.11-3.83,4.56,0,8.41,3.71,8.41,9.22,0,5.99-4.96,11.95-12.63,16.94-.67.46-1.41.86-1.89.86s-1.24-.41-1.91-.86Z"/>
    </g>
  </g>
</svg>